<svg width="64" height="64" viewBox="0 0 64 64" fill="none" xmlns="http://www.w3.org/2000/svg">
<rect width="64" height="64" rx="16" fill="white"/>
<path d="M27.9999 31.9585V22.667C27.9999 20.4579 29.7907 18.667 31.9999 18.667C34.209 18.667 35.9999 20.4579 35.9999 22.667V24.0041" stroke="#A637FE" stroke-width="2" stroke-linecap="round"/>
<path d="M36 32.0029V41.3339C36 43.5431 34.2091 45.3339 32 45.3339C29.7909 45.3339 28 43.5431 28 41.3339V39.9806" stroke="#A637FE" stroke-width="2" stroke-linecap="round"/>
<path d="M31.9998 36H22.6559C20.4526 36 18.6665 34.2091 18.6665 32C18.6665 29.7909 20.4526 28 22.6559 28H23.9922" stroke="#A637FE" stroke-width="2" stroke-linecap="round"/>
<path d="M32 28H41.3259C43.5391 28 45.3333 29.7909 45.3333 32C45.3333 34.2091 43.5391 36 41.3259 36H40.0442" stroke="#A637FE" stroke-width="2" stroke-linecap="round"/>
</svg>
