<svg width="40" height="40" viewBox="0 0 40 40" fill="none" xmlns="http://www.w3.org/2000/svg">
<g clip-path="url(#clip0_105_371)">
<path d="M8.72298 12.8833C11.0884 9.14391 15.2557 6.66683 20.0003 6.66683C24.745 6.66683 28.9123 9.14391 31.2778 12.8833L34.0948 11.1013C31.1442 6.43681 25.9353 3.3335 20.0003 3.3335C14.0655 3.3335 8.85655 6.43681 5.90593 11.1013L8.72298 12.8833ZM20.0003 33.3335C15.2557 33.3335 11.0884 30.8565 8.72298 27.117L5.90593 28.899C8.85655 33.5635 14.0655 36.6668 20.0003 36.6668C25.9353 36.6668 31.1442 33.5635 34.0948 28.899L31.2778 27.117C28.9123 30.8565 24.745 33.3335 20.0003 33.3335ZM20 13.3335C20.9205 13.3335 21.6667 14.0797 21.6667 15.0002C21.6667 15.9206 20.9205 16.6668 20 16.6668C19.0795 16.6668 18.3333 15.9206 18.3333 15.0002C18.3333 14.0797 19.0795 13.3335 20 13.3335ZM20 20.0002C22.7615 20.0002 25 17.7617 25 15.0002C25 12.2387 22.7615 10.0002 20 10.0002C17.2385 10.0002 15 12.2387 15 15.0002C15 17.7617 17.2385 20.0002 20 20.0002ZM20 25.0002C18.159 25.0002 16.6667 26.4925 16.6667 28.3335H13.3333C13.3333 24.6517 16.3181 21.6668 20 21.6668C23.6818 21.6668 26.6667 24.6517 26.6667 28.3335H23.3333C23.3333 26.4925 21.841 25.0002 20 25.0002ZM5 18.3335C4.07953 18.3335 3.33333 19.0797 3.33333 20.0002C3.33333 20.9207 4.07953 21.6668 5 21.6668C5.92047 21.6668 6.66667 20.9207 6.66667 20.0002C6.66667 19.0797 5.92047 18.3335 5 18.3335ZM0 20.0002C0 17.2387 2.23858 15.0002 5 15.0002C7.76142 15.0002 10 17.2387 10 20.0002C10 22.7617 7.76142 25.0002 5 25.0002C2.23858 25.0002 0 22.7617 0 20.0002ZM33.3333 20.0002C33.3333 19.0797 34.0795 18.3335 35 18.3335C35.9205 18.3335 36.6667 19.0797 36.6667 20.0002C36.6667 20.9207 35.9205 21.6668 35 21.6668C34.0795 21.6668 33.3333 20.9207 33.3333 20.0002ZM35 15.0002C32.2385 15.0002 30 17.2387 30 20.0002C30 22.7617 32.2385 25.0002 35 25.0002C37.7615 25.0002 40 22.7617 40 20.0002C40 17.2387 37.7615 15.0002 35 15.0002Z" fill="url(#paint0_linear_105_371)"/>
</g>
<defs>
<linearGradient id="paint0_linear_105_371" x1="20" y1="3.3335" x2="20" y2="36.6668" gradientUnits="userSpaceOnUse">
<stop stop-color="#00B6B9"/>
<stop offset="1" stop-color="#008587"/>
</linearGradient>
<clipPath id="clip0_105_371">
<rect width="40" height="40" fill="white"/>
</clipPath>
</defs>
</svg>
