<svg width="40" height="40" viewBox="0 0 40 40" fill="none" xmlns="http://www.w3.org/2000/svg">
<path d="M6.66669 36.6665C6.66669 29.3027 12.6362 23.3332 20 23.3332C27.3639 23.3332 33.3334 29.3027 33.3334 36.6665H30C30 31.1437 25.5229 26.6665 20 26.6665C14.4772 26.6665 10 31.1437 10 36.6665H6.66669ZM20 21.6665C14.475 21.6665 10 17.1915 10 11.6665C10 6.1415 14.475 1.6665 20 1.6665C25.525 1.6665 30 6.1415 30 11.6665C30 17.1915 25.525 21.6665 20 21.6665ZM20 18.3332C23.6834 18.3332 26.6667 15.3498 26.6667 11.6665C26.6667 7.98317 23.6834 4.99984 20 4.99984C16.3167 4.99984 13.3334 7.98317 13.3334 11.6665C13.3334 15.3498 16.3167 18.3332 20 18.3332Z" fill="url(#paint0_linear_105_327)"/>
<defs>
<linearGradient id="paint0_linear_105_327" x1="20" y1="1.6665" x2="20" y2="36.6665" gradientUnits="userSpaceOnUse">
<stop stop-color="#00B6B9"/>
<stop offset="1" stop-color="#008587"/>
</linearGradient>
</defs>
</svg>
