<svg width="40" height="40" viewBox="0 0 40 40" fill="none" xmlns="http://www.w3.org/2000/svg">
<rect x="0.5" y="0.5" width="39" height="39" rx="19.5" stroke="white"/>
<g clip-path="url(#clip0_105_1122)">
<path d="M26.1933 14.5401C26.1933 13.8929 25.6822 13.3702 25.0538 13.3702C24.4255 13.3702 23.9139 13.8929 23.9139 14.5401C23.9139 15.185 24.4255 15.7076 25.0538 15.7076C25.6822 15.7076 26.1933 15.185 26.1933 14.5401Z" fill="white"/>
<path d="M27.7116 23.6723C27.6694 24.6218 27.5147 25.1377 27.3863 25.4803C27.2137 25.9346 27.0078 26.2595 26.674 26.6002C26.3439 26.9409 26.0273 27.1517 25.5847 27.3269C25.2508 27.4607 24.7463 27.6199 23.8211 27.6652C22.821 27.7104 22.5246 27.7201 19.9883 27.7201C17.4543 27.7201 17.1556 27.7104 16.1554 27.6652C15.2303 27.6199 14.7281 27.4607 14.3942 27.3269C13.9492 27.1517 13.635 26.9409 13.303 26.6002C12.9687 26.2595 12.7629 25.9346 12.5926 25.4803C12.4641 25.1377 12.3071 24.6218 12.2672 23.6723C12.2185 22.6458 12.2095 22.3368 12.2095 19.739C12.2095 17.136 12.2185 16.8294 12.2672 15.8029C12.3071 14.8534 12.4641 14.338 12.5926 13.9924C12.7629 13.5386 12.9687 13.2157 13.303 12.875C13.635 12.5347 13.9492 12.3235 14.3942 12.1464C14.7281 12.0121 15.2303 11.8552 16.1554 11.81C17.1556 11.7647 17.4543 11.7532 19.9883 11.7532C22.5246 11.7532 22.821 11.7647 23.8211 11.81C24.7463 11.8552 25.2508 12.0121 25.5847 12.1464C26.0273 12.3235 26.3439 12.5347 26.674 12.875C27.0078 13.2157 27.2137 13.5386 27.3863 13.9924C27.5147 14.338 27.6694 14.8534 27.7116 15.8029C27.7581 16.8294 27.7693 17.136 27.7693 19.739C27.7693 22.3368 27.7581 22.6458 27.7116 23.6723ZM29.4199 15.723C29.3735 14.6854 29.214 13.9766 28.9772 13.3591C28.7363 12.7186 28.4131 12.1757 27.8842 11.6329C27.3577 11.0924 26.8287 10.7609 26.2046 10.5106C25.6006 10.27 24.9123 10.1044 23.9008 10.0592C22.8894 10.0091 22.5663 10 19.9883 10C17.4125 10 17.0872 10.0091 16.0757 10.0592C15.0666 10.1044 14.3787 10.27 13.7719 10.5106C13.1502 10.7609 12.6212 11.0924 12.0947 11.6329C11.5657 12.1757 11.2426 12.7186 10.9993 13.3591C10.7648 13.9766 10.6054 14.6854 10.5566 15.723C10.5126 16.7611 10.5013 17.0931 10.5013 19.739C10.5013 22.3825 10.5126 22.7141 10.5566 23.7521C10.6054 24.7878 10.7648 25.4962 10.9993 26.1165C11.2426 26.7547 11.5657 27.2999 12.0947 27.8404C12.6212 28.3808 13.1502 28.7148 13.7719 28.9646C14.3787 29.2052 15.0666 29.3688 16.0757 29.4165C17.0872 29.4641 17.4125 29.4757 19.9883 29.4757C22.5663 29.4757 22.8894 29.4641 23.9008 29.4165C24.9123 29.3688 25.6006 29.2052 26.2046 28.9646C26.8287 28.7148 27.3577 28.3808 27.8842 27.8404C28.4131 27.2999 28.7363 26.7547 28.9772 26.1165C29.214 25.4962 29.3735 24.7878 29.4199 23.7521C29.4663 22.7141 29.4776 22.3825 29.4776 19.739C29.4776 17.0931 29.4663 16.7611 29.4199 15.723Z" fill="white"/>
<path d="M19.9883 22.9822C18.2425 22.9822 16.826 21.5307 16.826 19.739C16.826 17.9444 18.2425 16.4911 19.9883 16.4911C21.7345 16.4911 23.153 17.9444 23.153 19.739C23.153 21.5307 21.7345 22.9822 19.9883 22.9822ZM19.9883 14.7355C17.2972 14.7355 15.1177 16.9772 15.1177 19.739C15.1177 22.4985 17.2972 24.7378 19.9883 24.7378C22.6793 24.7378 24.8612 22.4985 24.8612 19.739C24.8612 16.9772 22.6793 14.7355 19.9883 14.7355Z" fill="white"/>
</g>
<defs>
<clipPath id="clip0_105_1122">
<rect width="19" height="19.5" fill="white" transform="translate(10.5013 10)"/>
</clipPath>
</defs>
</svg>
