<svg width="40" height="40" viewBox="0 0 40 40" fill="none" xmlns="http://www.w3.org/2000/svg">
<path d="M3.33337 36.6665C3.33337 29.3027 9.30291 23.3332 16.6667 23.3332C24.0305 23.3332 30 29.3027 30 36.6665H26.6667C26.6667 31.1437 22.1895 26.6665 16.6667 26.6665C11.1439 26.6665 6.66671 31.1437 6.66671 36.6665H3.33337ZM16.6667 21.6665C11.1417 21.6665 6.66671 17.1915 6.66671 11.6665C6.66671 6.1415 11.1417 1.6665 16.6667 1.6665C22.1917 1.6665 26.6667 6.1415 26.6667 11.6665C26.6667 17.1915 22.1917 21.6665 16.6667 21.6665ZM16.6667 18.3332C20.35 18.3332 23.3334 15.3498 23.3334 11.6665C23.3334 7.98317 20.35 4.99984 16.6667 4.99984C12.9834 4.99984 10 7.98317 10 11.6665C10 15.3498 12.9834 18.3332 16.6667 18.3332ZM30.4729 24.5045C35.1074 26.5933 38.3334 31.2532 38.3334 36.6665H35C35 32.6065 32.5805 29.1117 29.1047 27.545L30.4729 24.5045ZM29.327 5.68852C32.6574 7.06155 35 10.3392 35 14.1665C35 18.9502 31.3404 22.8752 26.6667 23.2958V19.9408C29.4945 19.5368 31.6667 17.1065 31.6667 14.1665C31.6667 11.8654 30.336 9.87655 28.4017 8.92709L29.327 5.68852Z" fill="url(#paint0_linear_105_347)"/>
<defs>
<linearGradient id="paint0_linear_105_347" x1="20.8334" y1="1.6665" x2="20.8334" y2="36.6665" gradientUnits="userSpaceOnUse">
<stop stop-color="#00B6B9"/>
<stop offset="1" stop-color="#008587"/>
</linearGradient>
</defs>
</svg>
