<svg width="64" height="64" viewBox="0 0 64 64" fill="none" xmlns="http://www.w3.org/2000/svg">
<rect width="64" height="64" rx="16" fill="white"/>
<path d="M45.3332 32.0003C45.3332 24.6363 39.3638 18.667 31.9998 18.667C24.6358 18.667 18.6665 24.6363 18.6665 32.0003C18.6665 39.3643 24.6358 45.3337 31.9998 45.3337" stroke="#1877F2" stroke-width="1.8" stroke-linecap="round" stroke-linejoin="round"/>
<path d="M33.333 18.7334C33.333 18.7334 37.333 24.0001 37.333 32.0001M30.6663 45.2667C30.6663 45.2667 26.6663 40.0001 26.6663 32.0001C26.6663 24.0001 30.6663 18.7334 30.6663 18.7334M19.5063 36.6667H31.9997M19.5063 27.3334H44.493M41.333 39.3334V41.3334H43.333" stroke="#1877F2" stroke-width="1.8" stroke-linecap="round" stroke-linejoin="round"/>
<path d="M41.3333 46.6667C42.7478 46.6667 44.1044 46.1048 45.1046 45.1046C46.1048 44.1044 46.6667 42.7478 46.6667 41.3333C46.6667 39.9188 46.1048 38.5623 45.1046 37.5621C44.1044 36.5619 42.7478 36 41.3333 36C39.9188 36 38.5623 36.5619 37.5621 37.5621C36.5619 38.5623 36 39.9188 36 41.3333C36 42.7478 36.5619 44.1044 37.5621 45.1046C38.5623 46.1048 39.9188 46.6667 41.3333 46.6667Z" stroke="#1877F2" stroke-width="1.8" stroke-linecap="round" stroke-linejoin="round"/>
</svg>
