<svg width="32" height="33" viewBox="0 0 32 33" fill="none" xmlns="http://www.w3.org/2000/svg">
<path d="M16 15.3787C18.0618 15.3787 19.7333 17.0502 19.7333 19.112V23.592H18.24V19.112C18.24 17.9191 17.3075 16.9439 16.1316 16.8758L16 16.872C14.807 16.872 13.8319 17.8045 13.7638 18.9804L13.76 19.112V23.592H12.2667V19.112C12.2667 17.0502 13.9381 15.3787 16 15.3787ZM11.1467 17.6187C11.3549 17.6187 11.5574 17.643 11.7515 17.689C11.626 18.0622 11.5489 18.4565 11.5267 18.8651L11.52 19.112L11.5205 19.1759C11.436 19.1461 11.3469 19.126 11.2545 19.1172L11.1467 19.112C10.5645 19.112 10.0861 19.5562 10.0318 20.1241L10.0267 20.232V23.592H8.53333V20.232C8.53333 18.7887 9.70335 17.6187 11.1467 17.6187ZM20.8533 17.6187C22.2966 17.6187 23.4667 18.7887 23.4667 20.232V23.592H21.9733V20.232C21.9733 19.6498 21.5291 19.1715 20.9612 19.1172L20.8533 19.112C20.7225 19.112 20.5969 19.1344 20.4802 19.1756L20.48 19.112C20.48 18.615 20.3991 18.1369 20.2496 17.6901C20.4426 17.643 20.6451 17.6187 20.8533 17.6187ZM11.1467 13.1387C12.1776 13.1387 13.0133 13.9744 13.0133 15.0054C13.0133 16.0363 12.1776 16.872 11.1467 16.872C10.1157 16.872 9.27999 16.0363 9.27999 15.0054C9.27999 13.9744 10.1157 13.1387 11.1467 13.1387ZM20.8533 13.1387C21.8842 13.1387 22.72 13.9744 22.72 15.0054C22.72 16.0363 21.8842 16.872 20.8533 16.872C19.8224 16.872 18.9867 16.0363 18.9867 15.0054C18.9867 13.9744 19.8224 13.1387 20.8533 13.1387ZM11.1467 14.632C10.9405 14.632 10.7733 14.7992 10.7733 15.0054C10.7733 15.2115 10.9405 15.3787 11.1467 15.3787C11.3528 15.3787 11.52 15.2115 11.52 15.0054C11.52 14.7992 11.3528 14.632 11.1467 14.632ZM20.8533 14.632C20.6472 14.632 20.48 14.7992 20.48 15.0054C20.48 15.2115 20.6472 15.3787 20.8533 15.3787C21.0595 15.3787 21.2267 15.2115 21.2267 15.0054C21.2267 14.7992 21.0595 14.632 20.8533 14.632ZM16 8.65869C17.6495 8.65869 18.9867 9.99587 18.9867 11.6454C18.9867 13.2948 17.6495 14.632 16 14.632C14.3505 14.632 13.0133 13.2948 13.0133 11.6454C13.0133 9.99587 14.3505 8.65869 16 8.65869ZM16 10.152C15.1752 10.152 14.5067 10.8206 14.5067 11.6454C14.5067 12.4701 15.1752 13.1387 16 13.1387C16.8248 13.1387 17.4933 12.4701 17.4933 11.6454C17.4933 10.8206 16.8248 10.152 16 10.152Z" fill="url(#paint0_linear_105_771)"/>
<defs>
<linearGradient id="paint0_linear_105_771" x1="16" y1="8.65869" x2="16" y2="23.592" gradientUnits="userSpaceOnUse">
<stop stop-color="#00B6B9"/>
<stop offset="1" stop-color="#008587"/>
</linearGradient>
</defs>
</svg>
