<svg width="32" height="33" viewBox="0 0 32 33" fill="none" xmlns="http://www.w3.org/2000/svg">
<path d="M20.6811 9.28223C21.5696 9.02246 22.5109 9.73155 22.5063 10.7051L22.4956 10.8936C22.4875 10.9555 22.4734 11.0173 22.4526 11.0811C22.4114 11.2074 22.3423 11.3361 22.2338 11.4893C22.0727 11.7168 21.8173 12.0079 21.4174 12.4346L20.9682 12.9092L19.7827 14.1484L19.8354 14.1768L20.0131 14.2861C20.4075 14.5694 20.6515 15.029 20.6538 15.5166L20.6587 15.6816C20.6622 15.7167 20.667 15.7272 20.6684 15.7295C20.6687 15.7299 20.6701 15.7311 20.6733 15.7334C20.6772 15.7362 20.6847 15.7406 20.6977 15.7461C20.7256 15.7578 20.7652 15.7691 20.8296 15.7871L20.9692 15.8418C21.1125 15.9119 21.2639 16.0261 21.3881 16.1553L21.4672 16.2432C21.8157 16.6584 21.9139 17.1777 21.7358 17.6797L21.6928 17.7871C21.6434 17.9004 21.6232 17.9612 21.6186 17.9951L21.6176 17.9961C21.6319 18.0048 21.6475 18.0135 21.6616 18.0195C21.6697 18.023 21.6759 18.0261 21.6801 18.0273H21.6753C21.7031 18.0279 21.7261 18.0387 21.7329 18.042C21.744 18.0473 21.7559 18.0541 21.7661 18.0605C21.7866 18.0736 21.8108 18.0907 21.8364 18.1104L22.0171 18.2637L22.103 18.3477C22.4821 18.7525 22.6004 19.3268 22.4165 19.8555L22.3725 19.9678C22.3577 20.0018 22.3296 20.0447 22.2973 20.0889C22.2634 20.1353 22.219 20.191 22.1665 20.2549C22.0612 20.3829 21.9197 20.5462 21.7534 20.7314C21.4206 21.1022 20.9867 21.5668 20.5405 22.0312C20.0941 22.4958 19.6344 22.9608 19.2524 23.334C18.9686 23.6113 18.7231 23.8428 18.5561 23.9834L18.4165 24.0918C17.501 24.7206 16.3586 24.9735 15.2846 24.79L15.0708 24.7471C14.8789 24.7034 14.5648 24.5902 14.2817 24.4668L14.0151 24.3418C13.7299 24.1984 13.563 24.1087 13.3208 23.8994C13.2022 23.797 13.0643 23.6657 12.8842 23.4844L12.1909 22.7695C11.2487 21.7899 11.0011 21.5126 10.7924 21.1318L10.7036 20.96C10.4723 20.4921 10.3449 20.1935 10.2641 19.6123C10.2045 19.183 10.1702 18.5965 10.1333 17.665L10.0942 16.6113C10.0672 15.8397 10.0466 15.1143 10.0356 14.5674C10.0301 14.294 10.0273 14.0648 10.0268 13.8965C10.0266 13.8124 10.0266 13.7428 10.0278 13.6904C10.0289 13.6422 10.0313 13.5996 10.0356 13.5752L10.0708 13.4561C10.1202 13.335 10.208 13.2099 10.3081 13.1006C10.4436 12.9526 10.6168 12.8163 10.7876 12.7422L10.9223 12.6953C11.0645 12.656 11.2264 12.6399 11.3842 12.6436C11.5945 12.6485 11.8104 12.6898 11.978 12.7705L12.1587 12.8662C12.2144 12.9001 12.2665 12.9371 12.3159 12.9795C12.4157 13.0654 12.5002 13.1711 12.5815 13.3135C12.741 13.5929 12.8962 14.0289 13.1401 14.7715L13.3872 15.5098C13.4517 15.6963 13.5005 15.8293 13.5415 15.9248C13.5824 16.02 13.6121 16.0695 13.6352 16.0977C13.6546 16.1212 13.6697 16.1305 13.6919 16.1387L13.7006 16.1406C13.7052 16.1398 13.722 16.136 13.7583 16.1123C13.8325 16.0638 13.955 15.9577 14.1782 15.7412C14.6213 15.3114 15.4359 14.4694 16.9995 12.8467L18.3921 11.4102C18.8035 10.9888 19.1604 10.6265 19.4575 10.3291C19.7545 10.0318 19.9924 9.79855 20.1645 9.63574C20.2505 9.55447 20.3207 9.48983 20.3745 9.44336C20.4013 9.42019 20.425 9.40083 20.4448 9.38574C20.4622 9.37249 20.4836 9.35703 20.5044 9.34766L20.6811 9.28223ZM17.5893 13.5234C15.7968 15.3826 14.92 16.2974 14.4243 16.7236C14.1781 16.9353 14.0095 17.0412 13.8579 17.0732C13.7801 17.0896 13.7096 17.0855 13.643 17.0723L13.4497 17.0166C13.3264 16.9782 13.2172 16.9336 13.1186 16.8613C13.0193 16.7884 12.9364 16.6917 12.8579 16.5576C12.7428 16.3609 12.6307 16.0728 12.4858 15.6377L12.3286 15.1504C12.0867 14.3874 11.9464 13.9867 11.812 13.7734C11.7475 13.6712 11.6903 13.6216 11.6313 13.5947C11.5696 13.5666 11.4933 13.5566 11.3784 13.5566C11.2856 13.5567 11.2183 13.5666 11.1626 13.5859C11.135 13.5955 11.1088 13.6078 11.0825 13.624L11.0034 13.6846C10.9882 13.6981 10.9739 13.7095 10.9624 13.7188C10.9502 13.7285 10.9423 13.7348 10.935 13.7412C10.9229 13.7519 10.9168 13.7589 10.9116 13.7695C10.897 13.7995 10.882 13.867 10.8784 14.0596C10.8714 14.4367 10.9074 15.2148 10.977 16.918L11.021 17.8789C11.0365 18.1829 11.0522 18.4662 11.0678 18.7129C11.0834 18.9594 11.099 19.1693 11.1128 19.3281C11.1268 19.4904 11.138 19.5907 11.146 19.625L11.1938 19.8027C11.3203 20.2236 11.5521 20.6912 11.8208 21.0596L12.0219 21.3096C12.2691 21.598 12.6407 21.9897 13.0161 22.3623C13.2653 22.6096 13.514 22.847 13.726 23.0381C13.9405 23.2314 14.111 23.3714 14.2055 23.4297L14.3999 23.54C15.3841 24.0591 16.5761 24.0573 17.6118 23.5205L17.7505 23.4434C18.0703 23.2493 18.4167 22.9104 19.8383 21.4385L21.6147 19.5996V19.3643C21.6146 19.1911 21.5598 19.0557 21.4721 18.9648C21.4066 18.8971 21.3182 18.8495 21.2094 18.8301L21.0942 18.8203C20.979 18.8209 20.8783 18.8447 20.8042 18.8818L20.7387 18.9229C20.6299 19.0113 20.5122 19.0658 20.393 19.0684C20.3008 19.0703 20.2161 19.0409 20.144 18.9854L20.0756 18.9219C20.0277 18.8668 19.9858 18.8051 19.9682 18.7324C19.9499 18.6566 19.9616 18.5814 19.9946 18.5049C20.0265 18.431 20.0806 18.3517 20.1528 18.2617C20.2257 18.1708 20.3211 18.0635 20.4419 17.9346L20.6176 17.7393C20.7714 17.5602 20.8615 17.4267 20.9038 17.3135C20.9307 17.2413 20.9379 17.1789 20.9301 17.1191C20.9262 17.0886 20.9172 17.057 20.9047 17.0234L20.854 16.916C20.7702 16.7686 20.6459 16.681 20.5122 16.6514C20.4118 16.6292 20.3011 16.6379 20.1919 16.6855L20.0835 16.7461C19.9654 16.8273 19.8321 16.8766 19.7085 16.8877C19.6179 16.8957 19.5223 16.8842 19.4438 16.8398L19.3725 16.7842C19.2746 16.6825 19.2514 16.5518 19.2876 16.4131C19.3222 16.2806 19.4106 16.1352 19.5395 15.9805L19.6567 15.8301C19.6864 15.7873 19.7078 15.751 19.7231 15.7168C19.7518 15.6524 19.7621 15.5898 19.7622 15.4951C19.7622 15.1836 19.5485 14.9688 19.2446 14.9688C19.1443 14.9688 19.0824 14.979 19.02 15.0078C18.9868 15.0232 18.9515 15.0446 18.9096 15.0752L18.7583 15.1992C18.6746 15.2725 18.5863 15.3392 18.5112 15.3887C18.4737 15.4133 18.4375 15.4355 18.4057 15.4512C18.3901 15.4589 18.3737 15.4654 18.3579 15.4707C18.3432 15.4756 18.3218 15.4824 18.2983 15.4824C18.2375 15.4824 18.1798 15.4558 18.1342 15.4277C18.0865 15.3983 18.0405 15.3589 18.0005 15.3164C17.9604 15.2738 17.9232 15.2256 17.896 15.1758C17.8697 15.1277 17.8471 15.0693 17.8471 15.0098C17.8471 14.9832 17.8573 14.9624 17.8598 14.957C17.8641 14.9478 17.8691 14.9387 17.8735 14.9316C17.8824 14.9174 17.8945 14.9012 17.9077 14.8838C17.9347 14.848 17.9737 14.8 18.0219 14.7432C18.1187 14.6291 18.2575 14.4721 18.4282 14.2842C18.7704 13.9076 19.2427 13.4038 19.7612 12.8633L20.8491 11.7246C21.1126 11.4456 21.2874 11.2545 21.4038 11.1162C21.5207 10.9773 21.5712 10.8995 21.5942 10.8457C21.6144 10.7982 21.6147 10.7657 21.6147 10.6982C21.6147 10.5947 21.6065 10.5319 21.5864 10.4805C21.5764 10.455 21.5629 10.4298 21.5434 10.4023L21.4643 10.3105C21.3943 10.2379 21.3483 10.2039 21.3003 10.1846C21.2511 10.1648 21.1883 10.1562 21.0756 10.1562H20.8354L17.5893 13.5234ZM11.8833 9.75098C11.9861 9.72683 12.0903 9.75265 12.2016 9.8125C12.3119 9.8718 12.4426 9.97083 12.6069 10.1113C12.7724 10.2529 12.9776 10.4418 13.2358 10.6846L13.6342 11.0684C13.7543 11.187 13.86 11.2954 13.9487 11.3896C14.0373 11.4837 14.1102 11.565 14.1626 11.6299C14.1886 11.6621 14.211 11.6919 14.228 11.7178C14.2429 11.7405 14.2605 11.7707 14.268 11.8018L14.2778 11.8604C14.2923 11.9979 14.2424 12.1315 14.1587 12.2344C14.0869 12.3225 13.987 12.3927 13.8715 12.4287L13.7505 12.4531C13.6943 12.4581 13.6368 12.4583 13.5717 12.4395C13.5085 12.4211 13.4456 12.3865 13.3725 12.334C13.3006 12.2823 13.212 12.2083 13.0962 12.1045L12.6547 11.6963C12.4365 11.4914 12.2177 11.2829 12.0415 11.1123L11.6831 10.7559C11.4525 10.501 11.4129 10.1462 11.6391 9.91113L11.7495 9.8125C11.7896 9.78419 11.8339 9.76264 11.8833 9.75098ZM17.5083 8.85352C17.6482 8.85218 17.8111 8.88919 17.9145 8.98633L17.9546 9.0293C17.9922 9.07451 18.0207 9.12679 18.0366 9.18945C18.0571 9.27049 18.0544 9.36158 18.0356 9.46484C18.0078 9.61741 17.9401 9.81477 17.8315 10.0791L17.7094 10.3672C17.5312 10.775 17.402 11.0383 17.2827 11.1992C17.2219 11.2811 17.1594 11.3425 17.0883 11.3828C17.0155 11.4241 16.9409 11.4394 16.8637 11.4395C16.7958 11.4395 16.7278 11.4142 16.6694 11.3828C16.6095 11.3507 16.551 11.307 16.4995 11.2588C16.448 11.2105 16.4006 11.1548 16.3657 11.0977C16.3321 11.0426 16.3032 10.9758 16.3032 10.9072C16.3032 10.8837 16.3091 10.8575 16.3139 10.8389C16.3196 10.8171 16.3279 10.7913 16.3374 10.7627C16.3566 10.7047 16.3839 10.6299 16.4165 10.5459C16.4816 10.3778 16.5701 10.1661 16.6616 9.9541C16.7532 9.74183 16.8492 9.52773 16.9301 9.35742C16.9704 9.2726 17.0074 9.19773 17.0385 9.13867C17.068 9.08274 17.0962 9.03168 17.1196 9.00293L17.1577 8.96484C17.1984 8.92965 17.2474 8.90446 17.2963 8.8877C17.3623 8.86514 17.4359 8.85422 17.5083 8.85352ZM14.3696 7.56836C14.4589 7.56837 14.5473 7.57801 14.6294 7.62305C14.7123 7.66866 14.776 7.7428 14.8315 7.84473C14.9389 8.04184 15.0379 8.38475 15.187 8.95898L15.2895 9.36426C15.3187 9.48453 15.3434 9.591 15.3628 9.68555C15.4014 9.87386 15.4214 10.0218 15.4194 10.1387C15.4173 10.2572 15.3916 10.3539 15.3305 10.4326C15.3009 10.4707 15.2652 10.5015 15.226 10.5273L15.0991 10.5938C14.9863 10.6422 14.8505 10.6441 14.7348 10.6182C14.6505 10.5992 14.56 10.5619 14.4946 10.501L14.4389 10.4316C14.4324 10.4207 14.4277 10.4087 14.4253 10.4023C14.422 10.3939 14.418 10.3837 14.4145 10.373C14.4074 10.3517 14.3989 10.3239 14.3891 10.291C14.3694 10.2245 14.3448 10.1337 14.3159 10.0283C14.2581 9.81734 14.1847 9.54263 14.1137 9.26758C14.0428 8.99267 13.9732 8.71682 13.9213 8.50293C13.8955 8.39614 13.874 8.30404 13.8588 8.23535C13.8513 8.20107 13.8456 8.17114 13.8413 8.14844C13.8378 8.13017 13.8325 8.1053 13.8325 8.08691C13.8325 8.05695 13.8426 8.02782 13.8501 8.00781C13.8586 7.98496 13.8694 7.9601 13.8823 7.93555C13.9083 7.88608 13.9443 7.83022 13.9829 7.7793L14.063 7.69141C14.1494 7.61339 14.2531 7.56836 14.3696 7.56836Z" fill="url(#paint0_linear_105_778)"/>
<path d="M20.6811 9.28223C21.5696 9.02246 22.5109 9.73155 22.5063 10.7051L22.4956 10.8936C22.4875 10.9555 22.4734 11.0173 22.4526 11.0811C22.4114 11.2074 22.3423 11.3361 22.2338 11.4893C22.0727 11.7168 21.8173 12.0079 21.4174 12.4346L20.9682 12.9092L19.7827 14.1484L19.8354 14.1768L20.0131 14.2861C20.4075 14.5694 20.6515 15.029 20.6538 15.5166L20.6587 15.6816C20.6622 15.7167 20.667 15.7272 20.6684 15.7295C20.6687 15.7299 20.6701 15.7311 20.6733 15.7334C20.6772 15.7362 20.6847 15.7406 20.6977 15.7461C20.7256 15.7578 20.7652 15.7691 20.8296 15.7871L20.9692 15.8418C21.1125 15.9119 21.2639 16.0261 21.3881 16.1553L21.4672 16.2432C21.8157 16.6584 21.9139 17.1777 21.7358 17.6797L21.6928 17.7871C21.6434 17.9004 21.6232 17.9612 21.6186 17.9951L21.6176 17.9961C21.6319 18.0048 21.6475 18.0135 21.6616 18.0195C21.6697 18.023 21.6759 18.0261 21.6801 18.0273H21.6753C21.7031 18.0279 21.7261 18.0387 21.7329 18.042C21.744 18.0473 21.7559 18.0541 21.7661 18.0605C21.7866 18.0736 21.8108 18.0907 21.8364 18.1104L22.0171 18.2637L22.103 18.3477C22.4821 18.7525 22.6004 19.3268 22.4165 19.8555L22.3725 19.9678C22.3577 20.0018 22.3296 20.0447 22.2973 20.0889C22.2634 20.1353 22.219 20.191 22.1665 20.2549C22.0612 20.3829 21.9197 20.5462 21.7534 20.7314C21.4206 21.1022 20.9867 21.5668 20.5405 22.0312C20.0941 22.4958 19.6344 22.9608 19.2524 23.334C18.9686 23.6113 18.7231 23.8428 18.5561 23.9834L18.4165 24.0918C17.501 24.7206 16.3586 24.9735 15.2846 24.79L15.0708 24.7471C14.8789 24.7034 14.5648 24.5902 14.2817 24.4668L14.0151 24.3418C13.7299 24.1984 13.563 24.1087 13.3208 23.8994C13.2022 23.797 13.0643 23.6657 12.8842 23.4844L12.1909 22.7695C11.2487 21.7899 11.0011 21.5126 10.7924 21.1318L10.7036 20.96C10.4723 20.4921 10.3449 20.1935 10.2641 19.6123C10.2045 19.183 10.1702 18.5965 10.1333 17.665L10.0942 16.6113C10.0672 15.8397 10.0466 15.1143 10.0356 14.5674C10.0301 14.294 10.0273 14.0648 10.0268 13.8965C10.0266 13.8124 10.0266 13.7428 10.0278 13.6904C10.0289 13.6422 10.0313 13.5996 10.0356 13.5752L10.0708 13.4561C10.1202 13.335 10.208 13.2099 10.3081 13.1006C10.4436 12.9526 10.6168 12.8163 10.7876 12.7422L10.9223 12.6953C11.0645 12.656 11.2264 12.6399 11.3842 12.6436C11.5945 12.6485 11.8104 12.6898 11.978 12.7705L12.1587 12.8662C12.2144 12.9001 12.2665 12.9371 12.3159 12.9795C12.4157 13.0654 12.5002 13.1711 12.5815 13.3135C12.741 13.5929 12.8962 14.0289 13.1401 14.7715L13.3872 15.5098C13.4517 15.6963 13.5005 15.8293 13.5415 15.9248C13.5824 16.02 13.6121 16.0695 13.6352 16.0977C13.6546 16.1212 13.6697 16.1305 13.6919 16.1387L13.7006 16.1406C13.7052 16.1398 13.722 16.136 13.7583 16.1123C13.8325 16.0638 13.955 15.9577 14.1782 15.7412C14.6213 15.3114 15.4359 14.4694 16.9995 12.8467L18.3921 11.4102C18.8035 10.9888 19.1604 10.6265 19.4575 10.3291C19.7545 10.0318 19.9924 9.79855 20.1645 9.63574C20.2505 9.55447 20.3207 9.48983 20.3745 9.44336C20.4013 9.42019 20.425 9.40083 20.4448 9.38574C20.4622 9.37249 20.4836 9.35703 20.5044 9.34766L20.6811 9.28223ZM17.5893 13.5234C15.7968 15.3826 14.92 16.2974 14.4243 16.7236C14.1781 16.9353 14.0095 17.0412 13.8579 17.0732C13.7801 17.0896 13.7096 17.0855 13.643 17.0723L13.4497 17.0166C13.3264 16.9782 13.2172 16.9336 13.1186 16.8613C13.0193 16.7884 12.9364 16.6917 12.8579 16.5576C12.7428 16.3609 12.6307 16.0728 12.4858 15.6377L12.3286 15.1504C12.0867 14.3874 11.9464 13.9867 11.812 13.7734C11.7475 13.6712 11.6903 13.6216 11.6313 13.5947C11.5696 13.5666 11.4933 13.5566 11.3784 13.5566C11.2856 13.5567 11.2183 13.5666 11.1626 13.5859C11.135 13.5955 11.1088 13.6078 11.0825 13.624L11.0034 13.6846C10.9882 13.6981 10.9739 13.7095 10.9624 13.7188C10.9502 13.7285 10.9423 13.7348 10.935 13.7412C10.9229 13.7519 10.9168 13.7589 10.9116 13.7695C10.897 13.7995 10.882 13.867 10.8784 14.0596C10.8714 14.4367 10.9074 15.2148 10.977 16.918L11.021 17.8789C11.0365 18.1829 11.0522 18.4662 11.0678 18.7129C11.0834 18.9594 11.099 19.1693 11.1128 19.3281C11.1268 19.4904 11.138 19.5907 11.146 19.625L11.1938 19.8027C11.3203 20.2236 11.5521 20.6912 11.8208 21.0596L12.0219 21.3096C12.2691 21.598 12.6407 21.9897 13.0161 22.3623C13.2653 22.6096 13.514 22.847 13.726 23.0381C13.9405 23.2314 14.111 23.3714 14.2055 23.4297L14.3999 23.54C15.3841 24.0591 16.5761 24.0573 17.6118 23.5205L17.7505 23.4434C18.0703 23.2493 18.4167 22.9104 19.8383 21.4385L21.6147 19.5996V19.3643C21.6146 19.1911 21.5598 19.0557 21.4721 18.9648C21.4066 18.8971 21.3182 18.8495 21.2094 18.8301L21.0942 18.8203C20.979 18.8209 20.8783 18.8447 20.8042 18.8818L20.7387 18.9229C20.6299 19.0113 20.5122 19.0658 20.393 19.0684C20.3008 19.0703 20.2161 19.0409 20.144 18.9854L20.0756 18.9219C20.0277 18.8668 19.9858 18.8051 19.9682 18.7324C19.9499 18.6566 19.9616 18.5814 19.9946 18.5049C20.0265 18.431 20.0806 18.3517 20.1528 18.2617C20.2257 18.1708 20.3211 18.0635 20.4419 17.9346L20.6176 17.7393C20.7714 17.5602 20.8615 17.4267 20.9038 17.3135C20.9307 17.2413 20.9379 17.1789 20.9301 17.1191C20.9262 17.0886 20.9172 17.057 20.9047 17.0234L20.854 16.916C20.7702 16.7686 20.6459 16.681 20.5122 16.6514C20.4118 16.6292 20.3011 16.6379 20.1919 16.6855L20.0835 16.7461C19.9654 16.8273 19.8321 16.8766 19.7085 16.8877C19.6179 16.8957 19.5223 16.8842 19.4438 16.8398L19.3725 16.7842C19.2746 16.6825 19.2514 16.5518 19.2876 16.4131C19.3222 16.2806 19.4106 16.1352 19.5395 15.9805L19.6567 15.8301C19.6864 15.7873 19.7078 15.751 19.7231 15.7168C19.7518 15.6524 19.7621 15.5898 19.7622 15.4951C19.7622 15.1836 19.5485 14.9688 19.2446 14.9688C19.1443 14.9688 19.0824 14.979 19.02 15.0078C18.9868 15.0232 18.9515 15.0446 18.9096 15.0752L18.7583 15.1992C18.6746 15.2725 18.5863 15.3392 18.5112 15.3887C18.4737 15.4133 18.4375 15.4355 18.4057 15.4512C18.3901 15.4589 18.3737 15.4654 18.3579 15.4707C18.3432 15.4756 18.3218 15.4824 18.2983 15.4824C18.2375 15.4824 18.1798 15.4558 18.1342 15.4277C18.0865 15.3983 18.0405 15.3589 18.0005 15.3164C17.9604 15.2738 17.9232 15.2256 17.896 15.1758C17.8697 15.1277 17.8471 15.0693 17.8471 15.0098C17.8471 14.9832 17.8573 14.9624 17.8598 14.957C17.8641 14.9478 17.8691 14.9387 17.8735 14.9316C17.8824 14.9174 17.8945 14.9012 17.9077 14.8838C17.9347 14.848 17.9737 14.8 18.0219 14.7432C18.1187 14.6291 18.2575 14.4721 18.4282 14.2842C18.7704 13.9076 19.2427 13.4038 19.7612 12.8633L20.8491 11.7246C21.1126 11.4456 21.2874 11.2545 21.4038 11.1162C21.5207 10.9773 21.5712 10.8995 21.5942 10.8457C21.6144 10.7982 21.6147 10.7657 21.6147 10.6982C21.6147 10.5947 21.6065 10.5319 21.5864 10.4805C21.5764 10.455 21.5629 10.4298 21.5434 10.4023L21.4643 10.3105C21.3943 10.2379 21.3483 10.2039 21.3003 10.1846C21.2511 10.1648 21.1883 10.1562 21.0756 10.1562H20.8354L17.5893 13.5234ZM11.8833 9.75098C11.9861 9.72683 12.0903 9.75265 12.2016 9.8125C12.3119 9.8718 12.4426 9.97083 12.6069 10.1113C12.7724 10.2529 12.9776 10.4418 13.2358 10.6846L13.6342 11.0684C13.7543 11.187 13.86 11.2954 13.9487 11.3896C14.0373 11.4837 14.1102 11.565 14.1626 11.6299C14.1886 11.6621 14.211 11.6919 14.228 11.7178C14.2429 11.7405 14.2605 11.7707 14.268 11.8018L14.2778 11.8604C14.2923 11.9979 14.2424 12.1315 14.1587 12.2344C14.0869 12.3225 13.987 12.3927 13.8715 12.4287L13.7505 12.4531C13.6943 12.4581 13.6368 12.4583 13.5717 12.4395C13.5085 12.4211 13.4456 12.3865 13.3725 12.334C13.3006 12.2823 13.212 12.2083 13.0962 12.1045L12.6547 11.6963C12.4365 11.4914 12.2177 11.2829 12.0415 11.1123L11.6831 10.7559C11.4525 10.501 11.4129 10.1462 11.6391 9.91113L11.7495 9.8125C11.7896 9.78419 11.8339 9.76264 11.8833 9.75098ZM17.5083 8.85352C17.6482 8.85218 17.8111 8.88919 17.9145 8.98633L17.9546 9.0293C17.9922 9.07451 18.0207 9.12679 18.0366 9.18945C18.0571 9.27049 18.0544 9.36158 18.0356 9.46484C18.0078 9.61741 17.9401 9.81477 17.8315 10.0791L17.7094 10.3672C17.5312 10.775 17.402 11.0383 17.2827 11.1992C17.2219 11.2811 17.1594 11.3425 17.0883 11.3828C17.0155 11.4241 16.9409 11.4394 16.8637 11.4395C16.7958 11.4395 16.7278 11.4142 16.6694 11.3828C16.6095 11.3507 16.551 11.307 16.4995 11.2588C16.448 11.2105 16.4006 11.1548 16.3657 11.0977C16.3321 11.0426 16.3032 10.9758 16.3032 10.9072C16.3032 10.8837 16.3091 10.8575 16.3139 10.8389C16.3196 10.8171 16.3279 10.7913 16.3374 10.7627C16.3566 10.7047 16.3839 10.6299 16.4165 10.5459C16.4816 10.3778 16.5701 10.1661 16.6616 9.9541C16.7532 9.74183 16.8492 9.52773 16.9301 9.35742C16.9704 9.2726 17.0074 9.19773 17.0385 9.13867C17.068 9.08274 17.0962 9.03168 17.1196 9.00293L17.1577 8.96484C17.1984 8.92965 17.2474 8.90446 17.2963 8.8877C17.3623 8.86514 17.4359 8.85422 17.5083 8.85352ZM14.3696 7.56836C14.4589 7.56837 14.5473 7.57801 14.6294 7.62305C14.7123 7.66866 14.776 7.7428 14.8315 7.84473C14.9389 8.04184 15.0379 8.38475 15.187 8.95898L15.2895 9.36426C15.3187 9.48453 15.3434 9.591 15.3628 9.68555C15.4014 9.87386 15.4214 10.0218 15.4194 10.1387C15.4173 10.2572 15.3916 10.3539 15.3305 10.4326C15.3009 10.4707 15.2652 10.5015 15.226 10.5273L15.0991 10.5938C14.9863 10.6422 14.8505 10.6441 14.7348 10.6182C14.6505 10.5992 14.56 10.5619 14.4946 10.501L14.4389 10.4316C14.4324 10.4207 14.4277 10.4087 14.4253 10.4023C14.422 10.3939 14.418 10.3837 14.4145 10.373C14.4074 10.3517 14.3989 10.3239 14.3891 10.291C14.3694 10.2245 14.3448 10.1337 14.3159 10.0283C14.2581 9.81734 14.1847 9.54263 14.1137 9.26758C14.0428 8.99267 13.9732 8.71682 13.9213 8.50293C13.8955 8.39614 13.874 8.30404 13.8588 8.23535C13.8513 8.20107 13.8456 8.17114 13.8413 8.14844C13.8378 8.13017 13.8325 8.1053 13.8325 8.08691C13.8325 8.05695 13.8426 8.02782 13.8501 8.00781C13.8586 7.98496 13.8694 7.9601 13.8823 7.93555C13.9083 7.88608 13.9443 7.83022 13.9829 7.7793L14.063 7.69141C14.1494 7.61339 14.2531 7.56836 14.3696 7.56836Z" stroke="black" stroke-width="0.213333"/>
<path d="M20.6811 9.28223C21.5696 9.02246 22.5109 9.73155 22.5063 10.7051L22.4956 10.8936C22.4875 10.9555 22.4734 11.0173 22.4526 11.0811C22.4114 11.2074 22.3423 11.3361 22.2338 11.4893C22.0727 11.7168 21.8173 12.0079 21.4174 12.4346L20.9682 12.9092L19.7827 14.1484L19.8354 14.1768L20.0131 14.2861C20.4075 14.5694 20.6515 15.029 20.6538 15.5166L20.6587 15.6816C20.6622 15.7167 20.667 15.7272 20.6684 15.7295C20.6687 15.7299 20.6701 15.7311 20.6733 15.7334C20.6772 15.7362 20.6847 15.7406 20.6977 15.7461C20.7256 15.7578 20.7652 15.7691 20.8296 15.7871L20.9692 15.8418C21.1125 15.9119 21.2639 16.0261 21.3881 16.1553L21.4672 16.2432C21.8157 16.6584 21.9139 17.1777 21.7358 17.6797L21.6928 17.7871C21.6434 17.9004 21.6232 17.9612 21.6186 17.9951L21.6176 17.9961C21.6319 18.0048 21.6475 18.0135 21.6616 18.0195C21.6697 18.023 21.6759 18.0261 21.6801 18.0273H21.6753C21.7031 18.0279 21.7261 18.0387 21.7329 18.042C21.744 18.0473 21.7559 18.0541 21.7661 18.0605C21.7866 18.0736 21.8108 18.0907 21.8364 18.1104L22.0171 18.2637L22.103 18.3477C22.4821 18.7525 22.6004 19.3268 22.4165 19.8555L22.3725 19.9678C22.3577 20.0018 22.3296 20.0447 22.2973 20.0889C22.2634 20.1353 22.219 20.191 22.1665 20.2549C22.0612 20.3829 21.9197 20.5462 21.7534 20.7314C21.4206 21.1022 20.9867 21.5668 20.5405 22.0312C20.0941 22.4958 19.6344 22.9608 19.2524 23.334C18.9686 23.6113 18.7231 23.8428 18.5561 23.9834L18.4165 24.0918C17.501 24.7206 16.3586 24.9735 15.2846 24.79L15.0708 24.7471C14.8789 24.7034 14.5648 24.5902 14.2817 24.4668L14.0151 24.3418C13.7299 24.1984 13.563 24.1087 13.3208 23.8994C13.2022 23.797 13.0643 23.6657 12.8842 23.4844L12.1909 22.7695C11.2487 21.7899 11.0011 21.5126 10.7924 21.1318L10.7036 20.96C10.4723 20.4921 10.3449 20.1935 10.2641 19.6123C10.2045 19.183 10.1702 18.5965 10.1333 17.665L10.0942 16.6113C10.0672 15.8397 10.0466 15.1143 10.0356 14.5674C10.0301 14.294 10.0273 14.0648 10.0268 13.8965C10.0266 13.8124 10.0266 13.7428 10.0278 13.6904C10.0289 13.6422 10.0313 13.5996 10.0356 13.5752L10.0708 13.4561C10.1202 13.335 10.208 13.2099 10.3081 13.1006C10.4436 12.9526 10.6168 12.8163 10.7876 12.7422L10.9223 12.6953C11.0645 12.656 11.2264 12.6399 11.3842 12.6436C11.5945 12.6485 11.8104 12.6898 11.978 12.7705L12.1587 12.8662C12.2144 12.9001 12.2665 12.9371 12.3159 12.9795C12.4157 13.0654 12.5002 13.1711 12.5815 13.3135C12.741 13.5929 12.8962 14.0289 13.1401 14.7715L13.3872 15.5098C13.4517 15.6963 13.5005 15.8293 13.5415 15.9248C13.5824 16.02 13.6121 16.0695 13.6352 16.0977C13.6546 16.1212 13.6697 16.1305 13.6919 16.1387L13.7006 16.1406C13.7052 16.1398 13.722 16.136 13.7583 16.1123C13.8325 16.0638 13.955 15.9577 14.1782 15.7412C14.6213 15.3114 15.4359 14.4694 16.9995 12.8467L18.3921 11.4102C18.8035 10.9888 19.1604 10.6265 19.4575 10.3291C19.7545 10.0318 19.9924 9.79855 20.1645 9.63574C20.2505 9.55447 20.3207 9.48983 20.3745 9.44336C20.4013 9.42019 20.425 9.40083 20.4448 9.38574C20.4622 9.37249 20.4836 9.35703 20.5044 9.34766L20.6811 9.28223ZM17.5893 13.5234C15.7968 15.3826 14.92 16.2974 14.4243 16.7236C14.1781 16.9353 14.0095 17.0412 13.8579 17.0732C13.7801 17.0896 13.7096 17.0855 13.643 17.0723L13.4497 17.0166C13.3264 16.9782 13.2172 16.9336 13.1186 16.8613C13.0193 16.7884 12.9364 16.6917 12.8579 16.5576C12.7428 16.3609 12.6307 16.0728 12.4858 15.6377L12.3286 15.1504C12.0867 14.3874 11.9464 13.9867 11.812 13.7734C11.7475 13.6712 11.6903 13.6216 11.6313 13.5947C11.5696 13.5666 11.4933 13.5566 11.3784 13.5566C11.2856 13.5567 11.2183 13.5666 11.1626 13.5859C11.135 13.5955 11.1088 13.6078 11.0825 13.624L11.0034 13.6846C10.9882 13.6981 10.9739 13.7095 10.9624 13.7188C10.9502 13.7285 10.9423 13.7348 10.935 13.7412C10.9229 13.7519 10.9168 13.7589 10.9116 13.7695C10.897 13.7995 10.882 13.867 10.8784 14.0596C10.8714 14.4367 10.9074 15.2148 10.977 16.918L11.021 17.8789C11.0365 18.1829 11.0522 18.4662 11.0678 18.7129C11.0834 18.9594 11.099 19.1693 11.1128 19.3281C11.1268 19.4904 11.138 19.5907 11.146 19.625L11.1938 19.8027C11.3203 20.2236 11.5521 20.6912 11.8208 21.0596L12.0219 21.3096C12.2691 21.598 12.6407 21.9897 13.0161 22.3623C13.2653 22.6096 13.514 22.847 13.726 23.0381C13.9405 23.2314 14.111 23.3714 14.2055 23.4297L14.3999 23.54C15.3841 24.0591 16.5761 24.0573 17.6118 23.5205L17.7505 23.4434C18.0703 23.2493 18.4167 22.9104 19.8383 21.4385L21.6147 19.5996V19.3643C21.6146 19.1911 21.5598 19.0557 21.4721 18.9648C21.4066 18.8971 21.3182 18.8495 21.2094 18.8301L21.0942 18.8203C20.979 18.8209 20.8783 18.8447 20.8042 18.8818L20.7387 18.9229C20.6299 19.0113 20.5122 19.0658 20.393 19.0684C20.3008 19.0703 20.2161 19.0409 20.144 18.9854L20.0756 18.9219C20.0277 18.8668 19.9858 18.8051 19.9682 18.7324C19.9499 18.6566 19.9616 18.5814 19.9946 18.5049C20.0265 18.431 20.0806 18.3517 20.1528 18.2617C20.2257 18.1708 20.3211 18.0635 20.4419 17.9346L20.6176 17.7393C20.7714 17.5602 20.8615 17.4267 20.9038 17.3135C20.9307 17.2413 20.9379 17.1789 20.9301 17.1191C20.9262 17.0886 20.9172 17.057 20.9047 17.0234L20.854 16.916C20.7702 16.7686 20.6459 16.681 20.5122 16.6514C20.4118 16.6292 20.3011 16.6379 20.1919 16.6855L20.0835 16.7461C19.9654 16.8273 19.8321 16.8766 19.7085 16.8877C19.6179 16.8957 19.5223 16.8842 19.4438 16.8398L19.3725 16.7842C19.2746 16.6825 19.2514 16.5518 19.2876 16.4131C19.3222 16.2806 19.4106 16.1352 19.5395 15.9805L19.6567 15.8301C19.6864 15.7873 19.7078 15.751 19.7231 15.7168C19.7518 15.6524 19.7621 15.5898 19.7622 15.4951C19.7622 15.1836 19.5485 14.9688 19.2446 14.9688C19.1443 14.9688 19.0824 14.979 19.02 15.0078C18.9868 15.0232 18.9515 15.0446 18.9096 15.0752L18.7583 15.1992C18.6746 15.2725 18.5863 15.3392 18.5112 15.3887C18.4737 15.4133 18.4375 15.4355 18.4057 15.4512C18.3901 15.4589 18.3737 15.4654 18.3579 15.4707C18.3432 15.4756 18.3218 15.4824 18.2983 15.4824C18.2375 15.4824 18.1798 15.4558 18.1342 15.4277C18.0865 15.3983 18.0405 15.3589 18.0005 15.3164C17.9604 15.2738 17.9232 15.2256 17.896 15.1758C17.8697 15.1277 17.8471 15.0693 17.8471 15.0098C17.8471 14.9832 17.8573 14.9624 17.8598 14.957C17.8641 14.9478 17.8691 14.9387 17.8735 14.9316C17.8824 14.9174 17.8945 14.9012 17.9077 14.8838C17.9347 14.848 17.9737 14.8 18.0219 14.7432C18.1187 14.6291 18.2575 14.4721 18.4282 14.2842C18.7704 13.9076 19.2427 13.4038 19.7612 12.8633L20.8491 11.7246C21.1126 11.4456 21.2874 11.2545 21.4038 11.1162C21.5207 10.9773 21.5712 10.8995 21.5942 10.8457C21.6144 10.7982 21.6147 10.7657 21.6147 10.6982C21.6147 10.5947 21.6065 10.5319 21.5864 10.4805C21.5764 10.455 21.5629 10.4298 21.5434 10.4023L21.4643 10.3105C21.3943 10.2379 21.3483 10.2039 21.3003 10.1846C21.2511 10.1648 21.1883 10.1562 21.0756 10.1562H20.8354L17.5893 13.5234ZM11.8833 9.75098C11.9861 9.72683 12.0903 9.75265 12.2016 9.8125C12.3119 9.8718 12.4426 9.97083 12.6069 10.1113C12.7724 10.2529 12.9776 10.4418 13.2358 10.6846L13.6342 11.0684C13.7543 11.187 13.86 11.2954 13.9487 11.3896C14.0373 11.4837 14.1102 11.565 14.1626 11.6299C14.1886 11.6621 14.211 11.6919 14.228 11.7178C14.2429 11.7405 14.2605 11.7707 14.268 11.8018L14.2778 11.8604C14.2923 11.9979 14.2424 12.1315 14.1587 12.2344C14.0869 12.3225 13.987 12.3927 13.8715 12.4287L13.7505 12.4531C13.6943 12.4581 13.6368 12.4583 13.5717 12.4395C13.5085 12.4211 13.4456 12.3865 13.3725 12.334C13.3006 12.2823 13.212 12.2083 13.0962 12.1045L12.6547 11.6963C12.4365 11.4914 12.2177 11.2829 12.0415 11.1123L11.6831 10.7559C11.4525 10.501 11.4129 10.1462 11.6391 9.91113L11.7495 9.8125C11.7896 9.78419 11.8339 9.76264 11.8833 9.75098ZM17.5083 8.85352C17.6482 8.85218 17.8111 8.88919 17.9145 8.98633L17.9546 9.0293C17.9922 9.07451 18.0207 9.12679 18.0366 9.18945C18.0571 9.27049 18.0544 9.36158 18.0356 9.46484C18.0078 9.61741 17.9401 9.81477 17.8315 10.0791L17.7094 10.3672C17.5312 10.775 17.402 11.0383 17.2827 11.1992C17.2219 11.2811 17.1594 11.3425 17.0883 11.3828C17.0155 11.4241 16.9409 11.4394 16.8637 11.4395C16.7958 11.4395 16.7278 11.4142 16.6694 11.3828C16.6095 11.3507 16.551 11.307 16.4995 11.2588C16.448 11.2105 16.4006 11.1548 16.3657 11.0977C16.3321 11.0426 16.3032 10.9758 16.3032 10.9072C16.3032 10.8837 16.3091 10.8575 16.3139 10.8389C16.3196 10.8171 16.3279 10.7913 16.3374 10.7627C16.3566 10.7047 16.3839 10.6299 16.4165 10.5459C16.4816 10.3778 16.5701 10.1661 16.6616 9.9541C16.7532 9.74183 16.8492 9.52773 16.9301 9.35742C16.9704 9.2726 17.0074 9.19773 17.0385 9.13867C17.068 9.08274 17.0962 9.03168 17.1196 9.00293L17.1577 8.96484C17.1984 8.92965 17.2474 8.90446 17.2963 8.8877C17.3623 8.86514 17.4359 8.85422 17.5083 8.85352ZM14.3696 7.56836C14.4589 7.56837 14.5473 7.57801 14.6294 7.62305C14.7123 7.66866 14.776 7.7428 14.8315 7.84473C14.9389 8.04184 15.0379 8.38475 15.187 8.95898L15.2895 9.36426C15.3187 9.48453 15.3434 9.591 15.3628 9.68555C15.4014 9.87386 15.4214 10.0218 15.4194 10.1387C15.4173 10.2572 15.3916 10.3539 15.3305 10.4326C15.3009 10.4707 15.2652 10.5015 15.226 10.5273L15.0991 10.5938C14.9863 10.6422 14.8505 10.6441 14.7348 10.6182C14.6505 10.5992 14.56 10.5619 14.4946 10.501L14.4389 10.4316C14.4324 10.4207 14.4277 10.4087 14.4253 10.4023C14.422 10.3939 14.418 10.3837 14.4145 10.373C14.4074 10.3517 14.3989 10.3239 14.3891 10.291C14.3694 10.2245 14.3448 10.1337 14.3159 10.0283C14.2581 9.81734 14.1847 9.54263 14.1137 9.26758C14.0428 8.99267 13.9732 8.71682 13.9213 8.50293C13.8955 8.39614 13.874 8.30404 13.8588 8.23535C13.8513 8.20107 13.8456 8.17114 13.8413 8.14844C13.8378 8.13017 13.8325 8.1053 13.8325 8.08691C13.8325 8.05695 13.8426 8.02782 13.8501 8.00781C13.8586 7.98496 13.8694 7.9601 13.8823 7.93555C13.9083 7.88608 13.9443 7.83022 13.9829 7.7793L14.063 7.69141C14.1494 7.61339 14.2531 7.56836 14.3696 7.56836Z" stroke="url(#paint1_linear_105_778)" stroke-width="0.213333"/>
<defs>
<linearGradient id="paint0_linear_105_778" x1="16.2666" y1="7.6748" x2="16.2666" y2="24.7415" gradientUnits="userSpaceOnUse">
<stop stop-color="#00B6B9"/>
<stop offset="1" stop-color="#008587"/>
</linearGradient>
<linearGradient id="paint1_linear_105_778" x1="16.2666" y1="7.6748" x2="16.2666" y2="24.7415" gradientUnits="userSpaceOnUse">
<stop stop-color="#00B6B9"/>
<stop offset="1" stop-color="#008587"/>
</linearGradient>
</defs>
</svg>
