<svg width="32" height="33" viewBox="0 0 32 33" fill="none" xmlns="http://www.w3.org/2000/svg">
<g clip-path="url(#clip0_105_785)">
<path d="M14.5136 20.6088H17.4864C17.5832 19.7238 18.0329 18.9933 18.7629 18.195C18.8451 18.1051 19.3725 17.557 19.435 17.4787C20.0567 16.7003 20.4 15.7368 20.4 14.7168C20.4 12.2762 18.4301 10.2977 16 10.2977C13.57 10.2977 11.6 12.2762 11.6 14.7168C11.6 15.7363 11.943 16.6992 12.5641 17.4775C12.6267 17.556 13.1553 18.1056 13.2365 18.1944C13.967 18.9932 14.4168 19.7238 14.5136 20.6088ZM17.4667 22.0819H14.5334V22.8184H17.4667V22.0819ZM11.4196 18.3987C10.6148 17.3901 10.1334 16.1099 10.1334 14.7168C10.1334 11.4627 12.7599 8.82471 16 8.82471C19.2401 8.82471 21.8667 11.4627 21.8667 14.7168C21.8667 16.1106 21.3847 17.3914 20.5792 18.4003C20.1243 18.97 18.9334 19.8723 18.9334 20.9771V22.8184C18.9334 23.6319 18.2767 24.2914 17.4667 24.2914H14.5334C13.7233 24.2914 13.0667 23.6319 13.0667 22.8184V20.9771C13.0667 19.8723 11.8747 18.9691 11.4196 18.3987ZM16.7334 14.7203H18.5667L15.2667 19.1394V16.1933H13.4334L16.7334 11.7707V14.7203Z" fill="url(#paint0_linear_105_785)"/>
</g>
<defs>
<linearGradient id="paint0_linear_105_785" x1="16" y1="8.82471" x2="16" y2="24.2914" gradientUnits="userSpaceOnUse">
<stop stop-color="#00B6B9"/>
<stop offset="1" stop-color="#008587"/>
</linearGradient>
<clipPath id="clip0_105_785">
<rect width="17.0667" height="17.0667" fill="white" transform="translate(7.46671 7.75781)"/>
</clipPath>
</defs>
</svg>
