<svg width="64" height="64" viewBox="0 0 64 64" fill="none" xmlns="http://www.w3.org/2000/svg">
<rect width="64" height="64" rx="16" fill="white"/>
<path d="M19.1668 31.9997C19.1668 33.4224 19.3864 34.7831 19.8257 36.0817C20.2649 37.3803 20.8904 38.5739 21.702 39.6624C22.5136 40.751 23.4828 41.6915 24.6095 42.4841C25.7363 43.2766 26.9776 43.8781 28.3335 44.2887V46.1794C26.7198 45.7592 25.2397 45.1004 23.8934 44.2028C22.547 43.3052 21.3869 42.2262 20.4129 40.9658C19.439 39.7054 18.6846 38.3161 18.1499 36.7979C17.6152 35.2796 17.343 33.6802 17.3335 31.9997C17.3335 30.6533 17.5054 29.3547 17.8491 28.1038C18.1929 26.853 18.6894 25.688 19.3387 24.609C19.988 23.5301 20.7519 22.5418 21.6304 21.6442C22.5088 20.7466 23.4971 19.978 24.5952 19.3382C25.6933 18.6985 26.863 18.2067 28.1043 17.863C29.3456 17.5192 30.6443 17.3426 32.0002 17.333C33.2892 17.333 34.5305 17.4906 35.7241 17.8057C36.9177 18.1208 38.0444 18.5743 39.1043 19.1663C40.1642 19.7584 41.1334 20.4697 42.0119 21.3005C42.8904 22.1312 43.659 23.0526 44.3179 24.0648C44.9767 25.0769 45.5019 26.175 45.8934 27.359C46.2849 28.5431 46.5284 29.7701 46.6239 31.04L44.4181 28.8343C44.0553 27.4211 43.4824 26.1225 42.6994 24.9385C41.9164 23.7544 40.9711 22.7327 39.8634 21.8734C38.7558 21.014 37.5384 20.3504 36.2111 19.8825C34.8838 19.4146 33.4802 19.1759 32.0002 19.1663C30.8161 19.1663 29.6799 19.3191 28.5913 19.6247C27.5028 19.9302 26.4858 20.3599 25.5405 20.9137C24.5952 21.4676 23.7263 22.1407 22.9338 22.9333C22.1412 23.7258 21.4728 24.59 20.9285 25.5257C20.3843 26.4615 19.9498 27.4832 19.6252 28.5908C19.3005 29.6985 19.1477 30.8347 19.1668 31.9997ZM32.0002 24.6663C30.988 24.6663 30.0379 24.8573 29.1499 25.2393C28.2619 25.6212 27.4884 26.1464 26.8296 26.8148C26.1707 27.4832 25.6456 28.2614 25.2541 29.1494C24.8626 30.0374 24.6668 30.9875 24.6668 31.9997C24.6668 32.9832 24.8483 33.9189 25.2111 34.807C25.5739 35.695 26.1087 36.4875 26.8153 37.1846L25.5119 38.488C24.643 37.619 23.9793 36.626 23.521 35.5088C23.0627 34.3916 22.8335 33.2219 22.8335 31.9997C22.8335 31.1594 22.9433 30.3478 23.1629 29.5648C23.3825 28.7818 23.6881 28.0513 24.0796 27.3734C24.4711 26.6954 24.9485 26.0795 25.5119 25.5257C26.0752 24.9719 26.6959 24.4945 27.3739 24.0934C28.0518 23.6924 28.7823 23.3821 29.5653 23.1624C30.3483 22.9428 31.1599 22.833 32.0002 22.833C32.7163 22.833 33.4181 22.9142 34.1056 23.0765C34.7931 23.2388 35.4472 23.4823 36.0679 23.807C36.6885 24.1316 37.2758 24.5136 37.8296 24.9528C38.3834 25.392 38.8704 25.9077 39.2905 26.4997H36.7983C36.1299 25.9077 35.3899 25.4541 34.5783 25.139C33.7667 24.8239 32.9073 24.6663 32.0002 24.6663ZM40.6369 28.333L46.6668 34.363V46.6663H30.1668V28.333H40.6369ZM41.1668 31.4697V33.833H43.5301L41.1668 31.4697ZM44.8335 44.833V35.6663H39.3335V30.1663H32.0002V44.833H44.8335ZM43.0002 37.4997V42.9997H41.1668V37.4997H43.0002ZM33.8335 42.9997V35.6663H35.6668V42.9997H33.8335ZM37.5002 42.9997V39.333H39.3335V42.9997H37.5002Z" fill="#F87740"/>
</svg>
