<svg width="40" height="40" viewBox="0 0 40 40" fill="none" xmlns="http://www.w3.org/2000/svg">
<rect x="0.5" y="0.5" width="39" height="39" rx="19.5" stroke="white"/>
<g clip-path="url(#clip0_105_1125)">
<path d="M17.851 22.81V16.6899L23.3396 19.7501L17.851 22.81ZM30.0598 14.7642C29.8183 13.8729 29.1067 13.1711 28.2032 12.9329C26.5656 12.5 19.9987 12.5 19.9987 12.5C19.9987 12.5 13.4318 12.5 11.7941 12.9329C10.8906 13.1711 10.179 13.8729 9.93752 14.7642C9.4987 16.3796 9.4987 19.75 9.4987 19.75C9.4987 19.75 9.4987 23.1203 9.93752 24.7358C10.179 25.6271 10.8906 26.3289 11.7941 26.5672C13.4318 27 19.9987 27 19.9987 27C19.9987 27 26.5656 27 28.2032 26.5672C29.1067 26.3289 29.8183 25.6271 30.0598 24.7358C30.4987 23.1203 30.4987 19.75 30.4987 19.75C30.4987 19.75 30.4987 16.3796 30.0598 14.7642Z" fill="white"/>
</g>
<defs>
<clipPath id="clip0_105_1125">
<rect width="21" height="14.5" fill="white" transform="translate(9.4987 12.5)"/>
</clipPath>
</defs>
</svg>
