<svg width="1440" height="1624" viewBox="0 0 1440 1624" fill="none" xmlns="http://www.w3.org/2000/svg">
<g opacity="0.2">
<mask id="mask0_151_1659" style="mask-type:alpha" maskUnits="userSpaceOnUse" x="174" y="0" width="1616" height="1592">
<rect x="174.484" y="854.259" width="1078.61" height="1208.07" transform="rotate(-52.3727 174.484 854.259)" fill="url(#paint0_linear_151_1659)"/>
</mask>
<g mask="url(#mask0_151_1659)">
<path d="M1096.82 618.399C1301.6 776.254 1351.7 1054.63 1208.72 1240.11C1193.72 1259.56 1177.14 1277.29 1159.33 1293.18C1251.38 1111.85 1192.02 874.067 1008.68 732.738C825.341 591.409 580.355 594.587 428.354 729.699C439.183 708.425 452.108 687.882 467.104 668.428C610.085 482.946 892.042 460.544 1096.82 618.399Z" fill="#26F1F1"/>
<g filter="url(#filter0_f_151_1659)">
<path d="M1087.03 631.103C1291.8 788.958 1351.7 1054.63 1208.72 1240.11C1193.72 1259.56 1177.14 1277.29 1159.33 1293.18C1251.38 1111.85 1201.81 861.362 1018.47 720.033C835.134 578.705 580.355 594.587 428.354 729.699C439.183 708.425 452.108 687.882 467.104 668.428C610.085 482.946 882.249 473.248 1087.03 631.103Z" fill="#26F1F1"/>
</g>
<g filter="url(#filter1_f_151_1659)">
<path d="M1082.13 637.455C1286.91 795.31 1348.26 1072.23 1205.28 1257.71C1190.28 1277.16 1173.7 1294.89 1155.89 1310.78C1247.94 1129.46 1206.71 855.01 1023.37 713.681C840.032 572.352 568.296 611.873 416.295 746.985C427.124 725.712 440.049 705.168 455.044 685.714C598.026 500.232 877.353 479.6 1082.13 637.455Z" fill="#26F1F1"/>
</g>
<g filter="url(#filter2_f_151_1659)">
<path d="M1082.13 637.455C1286.91 795.31 1348.26 1072.23 1205.28 1257.71C1190.28 1277.16 1173.7 1294.89 1155.89 1310.78C1247.94 1129.46 1206.71 855.01 1023.37 713.681C840.032 572.352 568.296 611.873 416.295 746.985C427.124 725.712 440.049 705.168 455.044 685.714C598.026 500.232 877.353 479.6 1082.13 637.455Z" fill="#26F1F1"/>
</g>
<g filter="url(#filter3_f_151_1659)">
<path d="M1082.13 637.455C1286.91 795.31 1348.26 1072.23 1205.28 1257.71C1190.28 1277.16 1173.7 1294.89 1155.89 1310.78C1247.94 1129.46 1206.71 855.01 1023.37 713.681C840.032 572.352 568.296 611.873 416.295 746.985C427.124 725.712 440.049 705.168 455.044 685.714C598.026 500.232 877.353 479.6 1082.13 637.455Z" fill="#26F1F1"/>
</g>
<g filter="url(#filter4_f_151_1659)">
<path d="M1068.3 682.491C1273.08 840.346 1348.26 1072.23 1205.28 1257.71C1190.28 1277.16 1173.7 1294.89 1155.89 1310.78C1247.94 1129.46 1227.8 838.357 1039.28 693.037C803.081 510.956 568.296 611.873 416.295 746.985C427.124 725.712 440.049 705.168 455.044 685.714C598.026 500.232 863.523 524.636 1068.3 682.491Z" fill="#26F1F1"/>
</g>
<g filter="url(#filter5_f_151_1659)">
<path d="M1068.3 682.492C1273.08 840.347 1394.68 1071.94 1251.7 1257.42C1236.71 1276.88 1141.73 1306.32 1123.91 1322.21C1215.96 1140.88 1227.8 838.357 1039.28 693.037C803.08 510.957 574.397 646.325 422.396 781.436C440.897 795.698 390.198 706.615 405.194 687.161C548.175 501.679 863.522 524.637 1068.3 682.492Z" fill="#26F1F1"/>
</g>
<g filter="url(#filter6_f_151_1659)">
<path d="M1068.3 682.492C1273.08 840.347 1394.68 1071.94 1251.7 1257.42C1236.71 1276.88 1141.73 1306.32 1123.91 1322.21C1215.96 1140.88 1227.8 838.357 1039.28 693.037C803.08 510.957 574.397 646.325 422.396 781.436C440.897 795.698 390.198 706.615 405.194 687.161C548.175 501.679 863.522 524.637 1068.3 682.492Z" fill="#26F1F1"/>
</g>
<g filter="url(#filter7_f_151_1659)">
<path d="M1068.3 682.492C1273.08 840.347 1394.68 1071.94 1251.7 1257.42C1236.71 1276.88 1141.73 1306.32 1123.91 1322.21C1215.96 1140.88 1227.8 838.357 1039.28 693.037C803.08 510.957 574.397 646.325 422.396 781.436C440.897 795.698 390.198 706.615 405.194 687.161C548.175 501.679 863.522 524.637 1068.3 682.492Z" fill="#26F1F1"/>
</g>
</g>
<mask id="mask1_151_1659" style="mask-type:alpha" maskUnits="userSpaceOnUse" x="-239" y="278" width="1579" height="1527">
<rect x="1339.32" y="885.043" width="1062.79" height="1208.07" transform="rotate(120.128 1339.32 885.043)" fill="url(#paint1_linear_151_1659)"/>
</mask>
<g mask="url(#mask1_151_1659)">
<path d="M455.658 1239.27C232.029 1109.49 146.024 840.037 263.573 637.479C275.902 616.235 290.024 596.495 305.614 578.418C238.015 770.205 327.904 998.211 528.12 1114.4C728.337 1230.59 970.812 1195.47 1103.88 1041.67C1095.92 1064.18 1085.79 1086.23 1073.46 1107.48C955.908 1310.03 679.287 1369.04 455.658 1239.27Z" fill="#4286C9"/>
<g filter="url(#filter8_f_151_1659)">
<path d="M463.709 1225.39C240.081 1095.62 146.024 840.037 263.573 637.479C275.902 616.235 290.024 596.495 305.614 578.418C238.015 770.205 319.852 1012.09 520.069 1128.28C720.285 1244.47 970.812 1195.47 1103.88 1041.67C1095.92 1064.18 1085.79 1086.23 1073.46 1107.48C955.908 1310.03 687.338 1355.17 463.709 1225.39Z" fill="#4286C9"/>
</g>
<g filter="url(#filter9_f_151_1659)">
<path d="M467.735 1218.46C244.106 1088.68 147.138 822.138 264.688 619.58C277.016 598.336 291.138 578.596 306.728 560.519C239.129 752.306 315.827 1019.02 516.043 1135.21C716.26 1251.4 980.513 1176.75 1113.58 1022.96C1105.62 1045.47 1095.49 1067.52 1083.16 1088.76C965.608 1291.32 691.364 1348.23 467.735 1218.46Z" fill="#4286C9"/>
</g>
<g filter="url(#filter10_f_151_1659)">
<path d="M467.735 1218.46C244.106 1088.68 147.138 822.138 264.688 619.58C277.016 598.336 291.138 578.596 306.728 560.519C239.129 752.306 315.827 1019.02 516.043 1135.21C716.26 1251.4 980.513 1176.75 1113.58 1022.96C1105.62 1045.47 1095.49 1067.52 1083.16 1088.76C965.608 1291.32 691.364 1348.23 467.735 1218.46Z" fill="#4286C9"/>
</g>
<g filter="url(#filter11_f_151_1659)">
<path d="M467.735 1218.46C244.106 1088.68 147.138 822.138 264.688 619.58C277.016 598.336 291.138 578.596 306.728 560.519C239.129 752.306 315.827 1019.02 516.043 1135.21C716.26 1251.4 980.513 1176.75 1113.58 1022.96C1105.62 1045.47 1095.49 1067.52 1083.16 1088.76C965.608 1291.32 691.364 1348.23 467.735 1218.46Z" fill="#4286C9"/>
</g>
<g filter="url(#filter12_f_151_1659)">
<path d="M475.569 1172C251.94 1042.22 147.138 822.138 264.688 619.58C277.016 598.336 291.138 578.596 306.728 560.519C239.129 752.306 297.089 1038.29 502.96 1157.76C760.908 1307.45 980.513 1176.75 1113.58 1022.96C1105.62 1045.47 1095.49 1067.52 1083.16 1088.76C965.608 1291.32 699.197 1301.78 475.569 1172Z" fill="#4286C9"/>
</g>
<g filter="url(#filter13_f_151_1659)">
<path d="M475.569 1172C251.94 1042.22 101.147 828.483 218.697 625.925C231.025 604.681 321.348 563.091 336.938 545.015C269.339 736.802 297.089 1038.29 502.96 1157.76C760.908 1307.45 969.967 1143.39 1103.03 989.6C1082.83 977.876 1144.72 1059.58 1132.39 1080.82C1014.84 1283.38 699.197 1301.78 475.569 1172Z" fill="#4286C9"/>
</g>
<g filter="url(#filter14_f_151_1659)">
<path d="M475.569 1172C251.94 1042.22 101.147 828.483 218.697 625.925C231.025 604.681 321.348 563.091 336.938 545.015C269.339 736.802 297.089 1038.29 502.96 1157.76C760.908 1307.45 969.967 1143.39 1103.03 989.6C1082.83 977.876 1144.72 1059.58 1132.39 1080.82C1014.84 1283.38 699.197 1301.78 475.569 1172Z" fill="#4286C9"/>
</g>
<g filter="url(#filter15_f_151_1659)">
<path d="M475.569 1172C251.94 1042.22 101.147 828.483 218.697 625.925C231.025 604.681 321.348 563.091 336.938 545.015C269.339 736.802 297.089 1038.29 502.96 1157.76C760.908 1307.45 969.967 1143.39 1103.03 989.6C1082.83 977.876 1144.72 1059.58 1132.39 1080.82C1014.84 1283.38 699.197 1301.78 475.569 1172Z" fill="#4286C9"/>
</g>
</g>
<g filter="url(#filter16_f_151_1659)">
<mask id="mask2_151_1659" style="mask-type:alpha" maskUnits="userSpaceOnUse" x="124" y="667" width="395" height="599">
<path opacity="0.8" d="M318.513 667.049L124.212 778.806L184.305 1037.56L518.252 1265.66L507.443 1067.89L516.457 1017.07L363.608 697.85L318.513 667.049Z" fill="url(#paint2_linear_151_1659)"/>
</mask>
<g mask="url(#mask2_151_1659)">
<g opacity="0.8">
<path d="M540.741 1235.94C493.048 1225.55 522.285 1263.35 477.628 1232.84C457.049 1218.79 344.531 1048.37 327.551 1031.72C265.746 945.848 251.997 845.772 292.233 767.127C300.371 751.137 310.724 736.871 322.335 723.183C263.45 792.459 312.632 909.929 376.142 985.666C465.962 1092.92 612.59 1156.22 755.548 1109.27C690.424 1185.52 502.847 1181.92 532.687 1190.44L540.741 1235.94Z" fill="#8FB5FF"/>
<g filter="url(#filter17_f_151_1659)">
<path d="M552.321 1216.37C504.628 1205.97 533.865 1243.77 489.208 1213.27C468.629 1199.21 356.111 1028.8 339.131 1012.15C277.326 926.273 263.577 826.197 303.813 747.552C311.951 731.562 322.304 717.296 333.915 703.608C275.03 772.884 322.791 932.996 386.301 1008.73C476.12 1115.99 587.654 1204.5 730.612 1157.55C665.488 1233.8 514.427 1162.34 544.267 1170.86L552.321 1216.37Z" fill="#8FB5FF"/>
</g>
<g filter="url(#filter18_f_151_1659)">
<path d="M552.321 1216.37C504.628 1205.97 533.865 1243.77 489.208 1213.27C468.629 1199.21 356.111 1028.8 339.131 1012.15C277.326 926.273 263.577 826.197 303.813 747.552C311.951 731.562 322.304 717.296 333.915 703.608C275.03 772.884 322.791 932.996 386.301 1008.73C476.12 1115.99 587.654 1204.5 730.612 1157.55C665.488 1233.8 514.427 1162.34 544.267 1170.86L552.321 1216.37Z" fill="#8FB5FF"/>
</g>
<g filter="url(#filter19_f_151_1659)">
<path d="M552.321 1216.37C504.628 1205.97 533.865 1243.77 489.208 1213.27C468.629 1199.21 356.111 1028.8 339.131 1012.15C277.326 926.273 263.577 826.197 303.813 747.552C311.951 731.562 322.304 717.296 333.915 703.608C275.03 772.884 322.791 932.996 386.301 1008.73C476.12 1115.99 587.654 1204.5 730.612 1157.55C665.488 1233.8 514.427 1162.34 544.267 1170.86L552.321 1216.37Z" fill="#8FB5FF"/>
</g>
<g filter="url(#filter20_f_151_1659)">
<path d="M552.321 1216.37C504.628 1205.97 533.865 1243.77 489.208 1213.27C468.629 1199.21 356.111 1028.8 339.131 1012.15C277.326 926.273 263.577 826.197 303.813 747.552C311.951 731.562 322.304 717.296 333.915 703.608C275.03 772.884 300.811 928.55 364.321 1004.29C454.14 1111.54 587.654 1204.5 730.612 1157.55C665.488 1233.8 514.427 1162.34 544.267 1170.86L552.321 1216.37Z" fill="#8FB5FF"/>
</g>
<g filter="url(#filter21_f_151_1659)">
<path d="M552.321 1216.37C504.628 1205.97 533.865 1243.77 489.208 1213.27C468.629 1199.21 356.112 1028.8 339.132 1012.15C277.326 926.274 263.577 826.198 303.813 747.553C311.951 731.563 321.573 710.288 333.184 696.599C274.299 765.876 296.882 925.144 360.392 1000.88C450.212 1108.13 587.653 1204.5 730.612 1157.55C665.488 1233.8 514.427 1162.34 544.267 1170.86L552.321 1216.37Z" fill="#8FB5FF"/>
</g>
<g filter="url(#filter22_f_151_1659)">
<path d="M540.741 1235.94C493.048 1225.55 522.285 1263.35 477.628 1232.84C457.049 1218.79 353.449 1045.78 336.469 1029.13C274.663 943.26 251.997 845.772 292.233 767.127C300.371 751.137 310.724 736.871 322.335 723.183C263.45 792.459 309.264 914.861 372.774 990.598C462.593 1097.85 591.03 1187.79 733.988 1140.84C668.865 1217.08 502.847 1181.92 532.687 1190.44L540.741 1235.94Z" fill="#8FB5FF"/>
</g>
<g filter="url(#filter23_f_151_1659)">
<path d="M542.473 1225.55C494.78 1215.16 524.017 1252.96 479.36 1222.46C458.78 1208.4 355.181 1035.39 338.201 1018.74C276.395 932.87 253.729 835.382 293.965 756.737C302.103 740.748 312.456 726.481 324.067 712.793C265.182 782.069 306.279 911.376 369.79 987.113C459.609 1094.37 588.046 1184.3 731.004 1137.35C665.88 1213.6 504.579 1171.53 534.419 1180.05L542.473 1225.55Z" fill="#8FB5FF"/>
</g>
<g filter="url(#filter24_f_151_1659)">
<path d="M548.953 1221.3C501.26 1210.91 530.497 1248.7 485.84 1218.2C465.26 1204.15 361.661 1031.14 344.681 1014.49C282.875 928.616 260.209 831.129 300.445 752.483C308.583 736.494 318.936 722.227 330.547 708.539C271.662 777.816 301.851 925.71 365.361 1001.45C455.18 1108.7 583.618 1198.63 726.576 1151.69C661.452 1227.93 511.059 1167.27 540.899 1175.79L548.953 1221.3Z" fill="#8FB5FF"/>
</g>
<g filter="url(#filter25_f_151_1659)">
<path d="M548.953 1221.3C501.26 1210.91 530.497 1248.7 485.84 1218.2C465.261 1204.15 372.157 1042.18 355.177 1025.53C293.372 939.653 262.824 815.423 303.059 736.778C311.198 720.788 318.936 722.228 330.547 708.54C271.662 777.816 266.333 899.214 329.844 974.951C419.663 1082.2 475.098 1205.74 618.056 1158.79C552.933 1235.03 511.059 1167.27 540.899 1175.79L548.953 1221.3Z" fill="#8FB5FF"/>
</g>
<g filter="url(#filter26_f_151_1659)">
<path d="M548.953 1221.3C501.26 1210.91 530.497 1248.7 485.84 1218.2C465.261 1204.15 361.014 1017.93 344.034 1001.28C282.228 915.406 262.824 815.423 303.059 736.778C311.198 720.788 318.936 722.228 330.547 708.54C271.662 777.816 286.878 896.611 350.389 972.348C440.208 1079.6 475.098 1205.74 618.056 1158.79C552.933 1235.03 511.059 1167.27 540.899 1175.79L548.953 1221.3Z" fill="#8FB5FF"/>
</g>
</g>
</g>
</g>
</g>
<defs>
<filter id="filter0_f_151_1659" x="421.02" y="513.076" width="873.359" height="787.436" filterUnits="userSpaceOnUse" color-interpolation-filters="sRGB">
<feFlood flood-opacity="0" result="BackgroundImageFix"/>
<feBlend mode="normal" in="SourceGraphic" in2="BackgroundImageFix" result="shape"/>
<feGaussianBlur stdDeviation="3.66704" result="effect1_foregroundBlur_151_1659"/>
</filter>
<filter id="filter1_f_151_1659" x="394.293" y="509.537" width="910.861" height="823.244" filterUnits="userSpaceOnUse" color-interpolation-filters="sRGB">
<feFlood flood-opacity="0" result="BackgroundImageFix"/>
<feBlend mode="normal" in="SourceGraphic" in2="BackgroundImageFix" result="shape"/>
<feGaussianBlur stdDeviation="11.0011" result="effect1_foregroundBlur_151_1659"/>
</filter>
<filter id="filter2_f_151_1659" x="384.514" y="499.758" width="930.419" height="842.801" filterUnits="userSpaceOnUse" color-interpolation-filters="sRGB">
<feFlood flood-opacity="0" result="BackgroundImageFix"/>
<feBlend mode="normal" in="SourceGraphic" in2="BackgroundImageFix" result="shape"/>
<feGaussianBlur stdDeviation="15.8905" result="effect1_foregroundBlur_151_1659"/>
</filter>
<filter id="filter3_f_151_1659" x="384.514" y="499.758" width="930.419" height="842.801" filterUnits="userSpaceOnUse" color-interpolation-filters="sRGB">
<feFlood flood-opacity="0" result="BackgroundImageFix"/>
<feBlend mode="normal" in="SourceGraphic" in2="BackgroundImageFix" result="shape"/>
<feGaussianBlur stdDeviation="15.8905" result="effect1_foregroundBlur_151_1659"/>
</filter>
<filter id="filter4_f_151_1659" x="340.509" y="479.444" width="1014.31" height="907.12" filterUnits="userSpaceOnUse" color-interpolation-filters="sRGB">
<feFlood flood-opacity="0" result="BackgroundImageFix"/>
<feBlend mode="normal" in="SourceGraphic" in2="BackgroundImageFix" result="shape"/>
<feGaussianBlur stdDeviation="37.8928" result="effect1_foregroundBlur_151_1659"/>
</filter>
<filter id="filter5_f_151_1659" x="355.93" y="509.534" width="1004.36" height="859.122" filterUnits="userSpaceOnUse" color-interpolation-filters="sRGB">
<feFlood flood-opacity="0" result="BackgroundImageFix"/>
<feBlend mode="normal" in="SourceGraphic" in2="BackgroundImageFix" result="shape"/>
<feGaussianBlur stdDeviation="23.2246" result="effect1_foregroundBlur_151_1659"/>
</filter>
<filter id="filter6_f_151_1659" x="302.147" y="455.751" width="1111.93" height="966.689" filterUnits="userSpaceOnUse" color-interpolation-filters="sRGB">
<feFlood flood-opacity="0" result="BackgroundImageFix"/>
<feBlend mode="normal" in="SourceGraphic" in2="BackgroundImageFix" result="shape"/>
<feGaussianBlur stdDeviation="50.1163" result="effect1_foregroundBlur_151_1659"/>
</filter>
<filter id="filter7_f_151_1659" x="253.253" y="406.857" width="1209.72" height="1064.48" filterUnits="userSpaceOnUse" color-interpolation-filters="sRGB">
<feFlood flood-opacity="0" result="BackgroundImageFix"/>
<feBlend mode="normal" in="SourceGraphic" in2="BackgroundImageFix" result="shape"/>
<feGaussianBlur stdDeviation="74.5632" result="effect1_foregroundBlur_151_1659"/>
</filter>
<filter id="filter8_f_151_1659" x="205.347" y="571.084" width="905.866" height="734.779" filterUnits="userSpaceOnUse" color-interpolation-filters="sRGB">
<feFlood flood-opacity="0" result="BackgroundImageFix"/>
<feBlend mode="normal" in="SourceGraphic" in2="BackgroundImageFix" result="shape"/>
<feGaussianBlur stdDeviation="3.66704" result="effect1_foregroundBlur_151_1659"/>
</filter>
<filter id="filter9_f_151_1659" x="192.396" y="538.517" width="943.185" height="771.433" filterUnits="userSpaceOnUse" color-interpolation-filters="sRGB">
<feFlood flood-opacity="0" result="BackgroundImageFix"/>
<feBlend mode="normal" in="SourceGraphic" in2="BackgroundImageFix" result="shape"/>
<feGaussianBlur stdDeviation="11.0011" result="effect1_foregroundBlur_151_1659"/>
</filter>
<filter id="filter10_f_151_1659" x="182.618" y="528.738" width="962.743" height="790.991" filterUnits="userSpaceOnUse" color-interpolation-filters="sRGB">
<feFlood flood-opacity="0" result="BackgroundImageFix"/>
<feBlend mode="normal" in="SourceGraphic" in2="BackgroundImageFix" result="shape"/>
<feGaussianBlur stdDeviation="15.8905" result="effect1_foregroundBlur_151_1659"/>
</filter>
<filter id="filter11_f_151_1659" x="182.618" y="528.738" width="962.743" height="790.991" filterUnits="userSpaceOnUse" color-interpolation-filters="sRGB">
<feFlood flood-opacity="0" result="BackgroundImageFix"/>
<feBlend mode="normal" in="SourceGraphic" in2="BackgroundImageFix" result="shape"/>
<feGaussianBlur stdDeviation="15.8905" result="effect1_foregroundBlur_151_1659"/>
</filter>
<filter id="filter12_f_151_1659" x="140.18" y="484.734" width="1049.18" height="848.555" filterUnits="userSpaceOnUse" color-interpolation-filters="sRGB">
<feFlood flood-opacity="0" result="BackgroundImageFix"/>
<feBlend mode="normal" in="SourceGraphic" in2="BackgroundImageFix" result="shape"/>
<feGaussianBlur stdDeviation="37.8928" result="effect1_foregroundBlur_151_1659"/>
</filter>
<filter id="filter13_f_151_1659" x="131.279" y="498.565" width="1049.2" height="802.329" filterUnits="userSpaceOnUse" color-interpolation-filters="sRGB">
<feFlood flood-opacity="0" result="BackgroundImageFix"/>
<feBlend mode="normal" in="SourceGraphic" in2="BackgroundImageFix" result="shape"/>
<feGaussianBlur stdDeviation="23.2246" result="effect1_foregroundBlur_151_1659"/>
</filter>
<filter id="filter14_f_151_1659" x="77.4954" y="444.782" width="1156.77" height="909.896" filterUnits="userSpaceOnUse" color-interpolation-filters="sRGB">
<feFlood flood-opacity="0" result="BackgroundImageFix"/>
<feBlend mode="normal" in="SourceGraphic" in2="BackgroundImageFix" result="shape"/>
<feGaussianBlur stdDeviation="50.1163" result="effect1_foregroundBlur_151_1659"/>
</filter>
<filter id="filter15_f_151_1659" x="28.6015" y="395.888" width="1254.56" height="1007.68" filterUnits="userSpaceOnUse" color-interpolation-filters="sRGB">
<feFlood flood-opacity="0" result="BackgroundImageFix"/>
<feBlend mode="normal" in="SourceGraphic" in2="BackgroundImageFix" result="shape"/>
<feGaussianBlur stdDeviation="74.5632" result="effect1_foregroundBlur_151_1659"/>
</filter>
<filter id="filter16_f_151_1659" x="266.421" y="693.596" width="254.835" height="554.408" filterUnits="userSpaceOnUse" color-interpolation-filters="sRGB">
<feFlood flood-opacity="0" result="BackgroundImageFix"/>
<feBlend mode="normal" in="SourceGraphic" in2="BackgroundImageFix" result="shape"/>
<feGaussianBlur stdDeviation="1.50177" result="effect1_foregroundBlur_151_1659"/>
</filter>
<filter id="filter17_f_151_1659" x="278.001" y="700.604" width="455.614" height="527.825" filterUnits="userSpaceOnUse" color-interpolation-filters="sRGB">
<feFlood flood-opacity="0" result="BackgroundImageFix"/>
<feBlend mode="normal" in="SourceGraphic" in2="BackgroundImageFix" result="shape"/>
<feGaussianBlur stdDeviation="1.50177" result="effect1_foregroundBlur_151_1659"/>
</filter>
<filter id="filter18_f_151_1659" x="249.167" y="671.77" width="513.282" height="585.493" filterUnits="userSpaceOnUse" color-interpolation-filters="sRGB">
<feFlood flood-opacity="0" result="BackgroundImageFix"/>
<feBlend mode="normal" in="SourceGraphic" in2="BackgroundImageFix" result="shape"/>
<feGaussianBlur stdDeviation="15.9188" result="effect1_foregroundBlur_151_1659"/>
</filter>
<filter id="filter19_f_151_1659" x="263.584" y="686.187" width="484.448" height="556.659" filterUnits="userSpaceOnUse" color-interpolation-filters="sRGB">
<feFlood flood-opacity="0" result="BackgroundImageFix"/>
<feBlend mode="normal" in="SourceGraphic" in2="BackgroundImageFix" result="shape"/>
<feGaussianBlur stdDeviation="8.71027" result="effect1_foregroundBlur_151_1659"/>
</filter>
<filter id="filter20_f_151_1659" x="263.584" y="686.187" width="484.448" height="556.659" filterUnits="userSpaceOnUse" color-interpolation-filters="sRGB">
<feFlood flood-opacity="0" result="BackgroundImageFix"/>
<feBlend mode="normal" in="SourceGraphic" in2="BackgroundImageFix" result="shape"/>
<feGaussianBlur stdDeviation="8.71027" result="effect1_foregroundBlur_151_1659"/>
</filter>
<filter id="filter21_f_151_1659" x="263.585" y="679.179" width="484.447" height="563.668" filterUnits="userSpaceOnUse" color-interpolation-filters="sRGB">
<feFlood flood-opacity="0" result="BackgroundImageFix"/>
<feBlend mode="normal" in="SourceGraphic" in2="BackgroundImageFix" result="shape"/>
<feGaussianBlur stdDeviation="8.71027" result="effect1_foregroundBlur_151_1659"/>
</filter>
<filter id="filter22_f_151_1659" x="264.263" y="715.373" width="477.534" height="537.437" filterUnits="userSpaceOnUse" color-interpolation-filters="sRGB">
<feFlood flood-opacity="0" result="BackgroundImageFix"/>
<feBlend mode="normal" in="SourceGraphic" in2="BackgroundImageFix" result="shape"/>
<feGaussianBlur stdDeviation="3.9046" result="effect1_foregroundBlur_151_1659"/>
</filter>
<filter id="filter23_f_151_1659" x="264.794" y="703.782" width="475.221" height="539.84" filterUnits="userSpaceOnUse" color-interpolation-filters="sRGB">
<feFlood flood-opacity="0" result="BackgroundImageFix"/>
<feBlend mode="normal" in="SourceGraphic" in2="BackgroundImageFix" result="shape"/>
<feGaussianBlur stdDeviation="4.50531" result="effect1_foregroundBlur_151_1659"/>
</filter>
<filter id="filter24_f_151_1659" x="275.479" y="703.733" width="455.903" height="531.43" filterUnits="userSpaceOnUse" color-interpolation-filters="sRGB">
<feFlood flood-opacity="0" result="BackgroundImageFix"/>
<feBlend mode="normal" in="SourceGraphic" in2="BackgroundImageFix" result="shape"/>
<feGaussianBlur stdDeviation="2.40283" result="effect1_foregroundBlur_151_1659"/>
</filter>
<filter id="filter25_f_151_1659" x="269.852" y="694.123" width="362.621" height="550.651" filterUnits="userSpaceOnUse" color-interpolation-filters="sRGB">
<feFlood flood-opacity="0" result="BackgroundImageFix"/>
<feBlend mode="normal" in="SourceGraphic" in2="BackgroundImageFix" result="shape"/>
<feGaussianBlur stdDeviation="7.2085" result="effect1_foregroundBlur_151_1659"/>
</filter>
<filter id="filter26_f_151_1659" x="267.568" y="694.123" width="364.905" height="550.651" filterUnits="userSpaceOnUse" color-interpolation-filters="sRGB">
<feFlood flood-opacity="0" result="BackgroundImageFix"/>
<feBlend mode="normal" in="SourceGraphic" in2="BackgroundImageFix" result="shape"/>
<feGaussianBlur stdDeviation="7.2085" result="effect1_foregroundBlur_151_1659"/>
</filter>
<linearGradient id="paint0_linear_151_1659" x1="713.789" y1="854.259" x2="713.789" y2="2062.33" gradientUnits="userSpaceOnUse">
<stop stop-color="#C4C4C4" stop-opacity="0"/>
<stop offset="0.380208" stop-color="#C4C4C4"/>
<stop offset="0.578125" stop-color="#C4C4C4"/>
<stop offset="1" stop-color="#C4C4C4" stop-opacity="0"/>
</linearGradient>
<linearGradient id="paint1_linear_151_1659" x1="1870.72" y1="885.043" x2="1870.72" y2="2093.12" gradientUnits="userSpaceOnUse">
<stop stop-color="#C4C4C4" stop-opacity="0"/>
<stop offset="0.380208" stop-color="#C4C4C4"/>
<stop offset="0.578125" stop-color="#C4C4C4"/>
<stop offset="1" stop-color="#C4C4C4" stop-opacity="0"/>
</linearGradient>
<linearGradient id="paint2_linear_151_1659" x1="461.24" y1="1096.92" x2="404.85" y2="705.314" gradientUnits="userSpaceOnUse">
<stop stop-color="#C4C4C4" stop-opacity="0"/>
<stop offset="0.565737" stop-color="#C4C4C4"/>
<stop offset="1" stop-color="#C4C4C4" stop-opacity="0"/>
</linearGradient>
</defs>
</svg>
